<svg version="1.2" xmlns="http://www.w3.org/2000/svg" viewBox="0 0 544 497" width="544" height="497">
	<title>logo</title>
	<style>
		.s0 { fill: #5b5b5d } 
		.s1 { fill: #d26650 } 
		.s2 { fill: #fefefe } 
	</style>
	<g id="Background">
		<path id="Path 1" class="s0" d="m273 1.4c-2.5 0.7-6.5 2.3-9 3.6-2.5 1.2-8.7 6.6-14 12-5.5 5.7-11.1 10.5-13.3 11.4-2 0.9-5.4 1.6-7.4 1.6-2.1 0-6.6-0.9-10-2-3.5-1.1-6.5-1.8-6.8-1.5-0.3 0.3 0.4 2.4 1.5 4.8 1 2.3 3.3 5.5 5 7.2 2.8 2.7 3.7 3 9.8 3 6.2 0 7.7-0.5 20.2-6.5l13.5-6.5c16.8 0 18.8 0.4 24 2.9 4 1.8 8.3 5.1 12.8 9.7 3.7 3.8 8.6 7.9 10.9 9.1 3.4 1.8 6 2.3 12.3 2.3 5.9 0 8.9-0.5 11.5-1.9 1.9-1 5.2-3.5 7.3-5.5 2-2 3.7-4.3 3.7-5.1 0.1-0.8-2.7-4.8-6-8.8-3.3-3.9-8.1-9.1-10.6-11.4-2.6-2.4-6.7-5.8-9.3-7.6-2.5-1.8-6.9-4.4-9.6-5.7-2.8-1.3-7-3.1-9.5-4-2.5-0.9-8.6-1.8-13.5-2-5.7-0.3-10.7 0-13.5 0.9zm81 47.2c-1.9 0.8-6 3.5-9 5.8-3 2.3-8 5.1-11 6.1-3.6 1.3-7.9 1.9-12.5 1.9-5-0.1-9-0.9-14-2.8-4.9-1.9-7.9-2.5-10-2-1.6 0.3-8.9 2.8-16 5.4-7.1 2.6-16.5 6.1-20.8 7.9-4.2 1.7-7.7 3.6-7.7 4.1 0 0.5 1.9 1.5 4.3 2 2.3 0.6 5.7 1.7 7.5 2.5 1.7 0.8 3.2 2.1 3.2 2.7 0 0.7-0.6 2-1.3 2.8-0.7 0.9-9.7 8.5-20.2 17-10.4 8.5-22.1 18.4-25.9 22-3.9 3.6-10.6 10.1-15 14.5-4.3 4.4-10.8 11.6-14.3 16-3.5 4.4-8.5 11.2-11 15-2.6 3.8-6.8 11.3-9.4 16.5-2.6 5.2-5.7 12-6.9 15-1.2 3-2.7 6.1-3.3 6.8-0.7 0.7-2.8 1.3-4.7 1.2-1.9 0-5.3-1-7.4-2.3-2.2-1.2-5.2-3.8-6.7-5.7-1.6-1.9-3.6-6.4-4.5-10-1.3-5.1-1.5-9-1.1-18 0.3-6.3 1.6-15.3 2.7-20 1.2-4.7 4.3-15 7-23 2.6-8 5.2-15.4 5.6-16.5 0.7-1.5-0.5-1-5.1 2.1-3.3 2.3-10.1 7.3-15 11.1-4.9 3.9-15.3 12.6-23 19.5-7.7 6.8-17.8 16.5-22.5 21.4-4.7 4.9-11.9 13-16 17.9-4.1 5-9.6 11.7-12.1 15-2.6 3.3-8.5 11.9-13.2 19-4.7 7.1-11.5 18.6-15.1 25.5-3.5 6.9-8.1 16.3-10.1 21-2 4.7-5.4 13.4-7.5 19.5-2.1 6.1-5 16.4-6.5 23-1.5 6.6-3.3 17.2-4.1 23.5-0.8 7.3-1.3 22.4-1.4 41 0 16.2 0.5 34.4 1 40.5 0.6 6.1 2.2 15.7 3.6 21.5 1.3 5.8 3.4 13 4.5 16 1.1 3 3 7 4.2 8.7 1.2 1.8 2.8 3.3 3.4 3.3 1 0 1.3-2.6 1.2-9.7 0-7.8 0.4-11.1 2.3-16.3 1.3-3.6 4.1-9.2 6.3-12.4 2.2-3.2 5.8-7.4 8-9.4 2.2-2 6.5-4.7 9.5-6 4.7-2.1 6.5-2.4 12.5-2 5.5 0.4 8.3 1.2 13.2 3.9 3.4 1.9 10.9 7.1 16.7 11.7 5.9 4.5 10.9 8.2 11.3 8.2 0.5 0 1.1-3.7 1.5-8.2 0.4-4.6 1.6-11 2.8-14.3 1.1-3.3 3.3-8 4.7-10.5 1.5-2.5 4.7-6.7 7.2-9.4 2.5-2.7 6.8-5.9 9.6-7.2 3-1.5 6.9-2.4 9.7-2.4 2.8 0 7.7 1.1 11.5 2.6 3.8 1.4 9.5 4.1 12.8 6.1 3.3 2 9.2 6 13 9 3.8 3 8.1 5.7 9.5 6 1.4 0.2 2.6 0.3 2.8 0.1 0.1-0.2-3-5.7-6.9-12.3-4-6.6-8.8-15.4-10.7-19.5-1.9-4.1-4.6-10.6-5.9-14.5-1.3-3.9-3.3-11.1-4.4-16-1.2-5.4-2-12.8-2-18.5 0-6.9 0.5-11.3 2-16 1.2-3.6 3.4-8.9 5.1-11.7 1.6-2.9 3.4-5.3 4-5.3 0.6 0 1.2 1.5 1.5 3.3 0.3 1.7 1.9 7.5 3.6 12.7 1.7 5.2 4.8 13.3 7 18 2.2 4.7 7 13 10.6 18.5 4.4 6.6 10.5 13.8 18 21.3l11.3 11.2c-4.1 8.1-5.5 13-5.8 16-0.4 3.9 0.1 7.9 1.6 13.5 1.2 4.4 4 15.4 6.1 24.5 2.2 9.1 4.7 20 5.5 24.3 0.9 4.2 1.6 8.9 1.6 10.5 0 1.5-0.7 3.7-1.5 5-1.1 1.7-2.5 2.2-5.5 2.2-2.2 0-8.4-1.7-13.8-3.7-6.2-2.4-11.4-3.7-14.5-3.8-4 0-5.1 0.4-6.7 2.5-1 1.4-2.8 4.3-3.9 6.5-1.1 2.2-2.4 6.7-2.8 10-0.4 3.3-0.7 8.1-0.6 10.8l0.3 4.7c79.7 0 91.1-0.3 93-1.3 1.8-0.9 2.6-2.3 3.1-5.2 0.3-2.2 0-5.8-0.6-8-0.9-3.3-1.8-4.4-5.3-6-2.3-1.1-4.9-3.1-5.9-4.5-1.2-1.9-2.2-8.6-4-27-1.3-13.5-2.4-28.8-2.5-34-0.2-7.5 0.2-10.3 1.6-13 1-1.9 2.6-4.3 3.5-5.3 0.9-1 2.4-1.8 3.3-1.7 1 0 6 2.1 11.1 4.7 5 2.5 13.5 6.3 18.7 8.3 5.2 2.1 9.6 3.4 9.8 2.9 0.1-0.5-1.7-4.4-4.1-8.6-2.4-4.3-6.1-11.2-8.2-15.3-2.1-4.1-7.1-13.7-11.2-21.2-4-7.6-7.6-14.8-7.9-16-0.4-1.6 4.6-16.2 15-44.3 8.5-23.1 15.7-42.8 16-43.8 0.3-0.9 1-1.7 1.6-1.7 0.6 0 13 8.1 27.8 17.9 14.7 9.8 26.8 17.6 27 17.2 0.2-0.3-0.9-6.9-2.4-14.6-1.4-7.7-3.3-14.7-4.1-15.5-0.8-0.8-4-1.8-7.1-2.1-3.8-0.4-8.5-2-14.2-4.9-4.7-2.3-11.2-6.1-14.5-8.3-3.3-2.2-11.2-9.2-17.5-15.6-6.4-6.4-13.2-14.1-15.2-17.1-2-3-4.6-8-5.9-11-1.9-4.5-2.3-7.3-2.3-15.5 0-7.9 0.5-11.2 2.2-15.5 1.2-3 3.6-7.7 5.3-10.5 1.8-2.7 7.5-9.2 12.6-14.2 7.7-7.7 10.9-10.1 18.5-13.9 8.8-4.4 9.9-4.6 20.1-5.3 5.9-0.3 10.7-0.8 10.7-1.1 0-0.3-1-2.1-2.3-4-1.3-1.9-5.2-5.4-8.8-7.8-3.5-2.4-8-4.7-9.9-5.2-1.9-0.6-4.3-1-5.3-1-0.9 0-2.6-0.9-3.7-2-1.7-1.7-1.9-2.8-1.4-8.2 0.5-4.7 0.3-6.6-0.7-7.5-0.8-0.6-3.7-2-6.4-3.1-2.8-1.1-5-2.6-5-3.3 0-0.9 1.9-1.6 5.5-2.1 3-0.4 7.3-0.5 9.5-0.1 2.2 0.3 4.8 1.5 5.7 2.5 1.3 1.3 1.8 3.4 1.8 7.3 0 4.6 0.4 5.7 2.2 6.9 1.3 0.7 3.7 1.7 5.3 2.1 1.6 0.4 5 1.9 7.4 3.3 2.5 1.5 6.5 5.2 9.1 8.2 2.5 3 5.9 7.7 7.5 10.3 1.7 2.7 4 6 5.1 7.5l2.1 2.7c14.6-8.9 23.3-13.3 28.8-15.6 5.5-2.3 15.2-5.5 21.5-7 6.3-1.6 15.1-3.2 19.5-3.6 6.2-0.5 8.5-1.1 10.1-2.7 1.1-1.2 3-5.7 4.2-10.1 1.2-4.5 2.2-11 2.2-14.8 0-4.2-0.6-7.9-1.6-9.9-0.9-1.8-2.6-4.3-3.8-5.6-1.1-1.2-2.4-2.2-2.9-2.2-0.4 0-0.7 1.7-0.7 3.8 0 2-0.4 5-1 6.7-0.5 1.7-2.1 3.6-3.5 4.3-1.4 0.6-3.9 1.2-5.5 1.2-1.6 0-5.8-0.9-9.3-2.1-3.4-1.1-7.8-3-9.7-4.1-1.9-1.2-8.2-5.6-14-9.9-5.8-4.3-13.2-9-16.5-10.5-4.6-2.1-7.9-2.9-14-3.1-5.8-0.3-9 0.1-11.5 1.3zm105.5 400.1c-3.3 1.5-9.8 4.1-14.5 6-4.7 1.9-10.9 4.5-13.8 5.9-2.8 1.3-7.1 2.7-9.5 3-3.1 0.5-10.3-0.6-27.2-4.1-21.7-4.6-23.3-4.8-28-3.6-2.8 0.8-6.4 1.9-8 2.6-1.6 0.7-12.2 4.5-23.5 8.5-11.3 4-23.9 8.6-28 10.2-4.1 1.6-10.4 4.7-14 6.9-3.6 2.1-8.3 5.4-10.5 7.4l-4 3.5c220.6 0 265.5-0.3 265.5-1 0-0.5-2.4-4.7-5.4-9.2-2.9-4.6-7.8-12.1-10.8-16.8-3-4.7-6.1-9-6.9-9.7-0.8-0.7-8.8-3.1-17.9-5.3-9.1-2.3-19.5-4.8-23.3-5.6-3.7-0.8-8.4-1.4-10.5-1.3-2 0-6.4 1.2-9.7 2.6z"/>
		<path id="Path 2" class="s1" d="m452.8 163.8c-1.3 2.6-5.8 11.2-10 19.2-4.1 8-12.8 24.7-19.2 37.2-6.4 12.6-11.5 23-11.4 23.3 0.2 0.2 10.2 1.8 22.3 3.4 12.1 1.7 27.4 3.7 34 4.6 6.6 0.9 12.2 1.3 12.5 1 0.3-0.3-0.8-5.1-2.3-10.8-1.5-5.6-3.4-12.5-4.1-15.2-0.8-2.8-4.2-15.4-7.6-28-3.5-12.7-7.1-26.7-8.2-31.3-1-4.5-2.3-8.2-2.7-8.2-0.5 0-1.9 2.1-3.3 4.7zm-26.5 10.1c-7 6.3-19.6 17.4-27.8 24.7-8.3 7.2-15.7 13.8-16.5 14.6-0.8 0.8-4.6 4.1-8.3 7.4-3.8 3.3-6.5 6.3-6 6.7 0.4 0.4 7.8 3.9 16.3 7.7 15.4 6.9 15.5 7 17 4.9 0.8-1.2 4.8-8.4 8.8-16.2 4-7.8 12.5-24.3 18.8-36.9 6.3-12.5 11.2-23.1 11-23.6-0.2-0.4-6.2 4.3-13.3 10.7zm45.7 3.2c1.7 6.3 3.9 14.6 4.9 18.5 1.1 3.8 3.3 12.2 5.1 18.5 1.7 6.3 4.7 17.4 6.6 24.5 2 7.1 3.9 13.3 4.2 13.7 0.4 0.4 5.9-0.9 12.2-2.9 6.3-1.9 13.3-3.9 15.5-4.5 2.2-0.5 4.8-1.4 5.7-1.9 1.6-0.8 0.1-3.1-10.9-17.7-7-9.2-17.9-23.5-24.3-31.7-6.3-8.3-13.1-17.3-15.1-20-2-2.8-4.4-5.7-5.3-6.5-1.4-1.2-1.1 0.7 1.4 10zm-109.7 61.7c0.3 1 1.3 11 2.2 22.3 0.9 11.3 2 23.6 2.5 27.5 0.7 4.8 1.7 8 3.3 10 1.3 1.6 4.2 3.9 6.3 5 2.1 1.1 5.7 3.2 7.9 4.6 2.5 1.6 4.5 3.9 5.3 6 0.7 2.1 1.5 3 2.1 2.4 0.4-0.6 1.9-14.7 3.1-31.5 1.3-16.8 2.1-31.2 1.8-32-0.3-0.8-7.8-4.8-16.7-8.8-8.8-3.9-16.6-7.2-17.2-7.2-0.6 0-0.8 0.8-0.6 1.7zm160.7 15.8c-2.5 0.7-9.2 2.7-15 4.3-5.8 1.6-11.2 3.2-12 3.6-0.8 0.3-2.1 1.8-2.7 3.3-0.7 1.5-4.4 15.6-8.3 31.3-3.8 15.7-7 28.8-7 29.2 0 0.5 1.8 0.8 4 0.8 3.2 0 4.4 0.6 6.1 2.7 1.1 1.6 3.6 6.2 5.5 10.3 2.2 4.6 3.8 7.1 4.4 6.5 0.5-0.6 7.6-21.5 15.9-46.5 8.3-25 15.1-45.8 15.1-46.3 0-0.4-0.3-0.7-0.8-0.6-0.4 0-2.7 0.7-5.2 1.4zm-115.4 3.7c-0.3 2.4-0.8 7.2-1.1 10.8-0.3 3.6-1.4 17.7-2.5 31.5-1.1 13.7-2.3 31.3-2.6 39-0.6 11.7-0.4 14.6 1 17.7 0.9 2.1 2.2 3.8 2.9 3.8 0.6 0 5.3-1.9 10.2-4 4.9-2.2 9.8-4.5 10.8-5 0.9-0.6 6.5-3.2 12.5-5.9 5.9-2.7 14.2-6.5 18.5-8.5 7.6-3.6 7.7-3.6 9.2-8.9 0.8-2.8 4.6-18.1 8.5-34 3.8-15.8 7-29.4 7-30.2 0-0.8-0.6-1.5-1.2-1.5-0.7 0-16.4-2-34.8-4.5-18.4-2.5-34.5-4.5-35.7-4.5-1.8 0-2.3 0.7-2.7 4.2zm-96.5 22c0 1.3 2.1 15.5 4.7 31.7 2.6 16.2 5.1 29.6 5.7 29.8 0.6 0.2 12.2-5.9 25.9-13.4 13.6-7.6 24.9-14.2 25-14.7 0-0.6-10.3-6.9-22.9-14.2-12.6-7.3-25.5-14.8-28.5-16.7-3-1.8-6.5-3.7-7.7-4.1-1.8-0.6-2.1-0.3-2.2 1.6zm-17.4 28c-3.7 10.6-7.8 22.1-9 25.5-1.2 3.4-2 6.4-1.7 6.7 0.3 0.2 6.4 1.1 13.5 2 7.1 0.9 13.1 1.5 13.3 1.4 0.1-0.2-0.5-5-1.3-10.8-0.9-5.8-2.7-17.7-4.1-26.5-1.5-8.8-2.9-16.3-3.3-16.8-0.3-0.4-3.6 8-7.4 18.5zm57.6 29.1c-17 9.4-27.3 15.8-27.3 16.7 0 0.8 8.1 21.5 18 46 15.1 37.6 18.2 44.4 19.7 44.1 1-0.2 4.1-0.5 6.8-0.8 2.8-0.3 8 0.2 11.8 1.1 3.7 0.9 8.1 1.6 9.7 1.6 1.8 0 3.4-0.7 3.9-1.8 0.7-1.1 0.2-6.4-1.5-16.2-1.4-8-3.6-21-5-29-1.4-8-2.9-17-3.3-20-0.7-4.9-0.6-5.7 1.3-7.2 1.2-0.9 3.5-2.8 5.1-4.1l3-2.5c-5-18.4-7.8-28-9.4-33.2-1.7-5.6-3.4-9.6-4.2-9.7-0.8-0.1-13.7 6.6-28.6 15zm86.7 20.2c-19.5 9.1-35.6 16.9-35.8 17.5-0.1 0.5 0.2 1 0.8 1 0.6 0 5.8 2.3 11.8 5.1 5.9 2.8 13.6 6.5 17.2 8.1 3.6 1.7 8.3 3.8 10.5 4.8 2.2 1.1 7.9 3.7 12.8 5.9l8.7 4.1c1.3-3.5 2.9-11.3 4.4-19.5 1.5-8.3 3.9-20.9 5.2-28 1.3-7.1 2.4-13.6 2.4-14.3 0-0.6-0.6-1.2-1.3-1.1-0.6 0-17.2 7.4-36.7 16.4zm42.4 19.4c-2.7 14.9-4.5 27.3-4.1 27.8 0.4 0.4 8.1-0.3 17-1.6 8.9-1.2 16.5-2.6 16.9-3 0.4-0.3-2.5-7.1-6.4-15.1-3.9-8-9.2-19.1-11.9-24.8-2.7-5.6-5.3-10.2-5.8-10.2-0.4 0-3 12.1-5.7 26.9zm-193.5-21.7c0.5 1.3 5.2 10.8 10.6 21.3 5.4 10.4 12.1 23.5 15 29 2.9 5.5 9.2 17.8 14.1 27.4 4.9 9.6 9.8 18 10.9 18.8 1.7 1.1 2.8 1 6.8-0.2 3.2-1 4.7-2 4.7-3.3 0-0.9-8.1-22.1-18-47-17.1-42.9-18.1-45.2-20.7-45.7-1.6-0.3-6.2-1-10.3-1.5-4.1-0.5-8.9-1-10.7-1-2.9 0-3.2 0.2-2.4 2.2zm109.6 34c0.3 2.4 2.7 16 5.1 30.3 2.5 14.3 5 27 5.5 28.2 0.7 1.7 2.3 2.6 6.2 3.4 4.9 1.1 5.7 1 14.7-2.4 5.2-1.9 12.9-5.1 17-7l7.5-3.5c7.3-18.4 9.1-24 8.7-24.4-0.4-0.4-5.6-2.9-11.7-5.6-6.1-2.8-13.9-6.3-17.5-8-3.6-1.6-12.5-5.7-19.7-9.1-7.3-3.4-14-6.1-14.9-6.1-1.3 0-1.5 0.7-0.9 4.2zm93 24.2c-8.2 1.3-15.5 2.5-16 2.8-0.5 0.3-2.2 3.5-3.7 7.2-1.6 3.6-2.8 7.2-2.8 7.8 0 0.8 3.9 2.2 10.2 3.6 5.7 1.2 11.3 2.2 12.6 2.2 1.7 0 3.9-2.6 10.2-12.5 4.4-6.9 8-12.7 8-13 0-0.3-0.8-0.4-1.7-0.4-1 0.1-8.5 1.1-16.8 2.3z"/>
		<path id="Path 3" class="s2" d="m364.3 64.8c-0.3 0.9 0.2 3.2 1.1 5 0.9 1.7 3.3 4.4 5.3 6q3.7 2.7 8.2 3c2.8 0.2 5.3-0.2 6.4-1 1.4-1 1.7-1.9 1-4.2-0.4-1.6-1.9-3.7-3.3-4.6-1.4-1-5.3-2.7-8.8-3.9-3.4-1.2-6.9-2.1-7.7-2.1-0.9 0-1.8 0.8-2.2 1.8z"/>
	</g>
</svg>